<mxfile host="app.diagrams.net" modified="2020-10-26T21:02:32.010Z" agent="5.0 (Macintosh; Intel Mac OS X 10_15_7) AppleWebKit/537.36 (KHTML, like Gecko) Chrome/86.0.4240.80 Safari/537.36" etag="pcpNC9Ppe1tx6w2nlEvw" version="13.8.3" type="github">
  <diagram id="R2lEEEUBdFMjLlhIrx00" name="Page-1">
    <mxGraphModel dx="629" dy="1443" grid="1" gridSize="10" guides="1" tooltips="1" connect="1" arrows="1" fold="1" page="1" pageScale="1" pageWidth="850" pageHeight="1100" math="0" shadow="0" extFonts="Permanent Marker^https://fonts.googleapis.com/css?family=Permanent+Marker">
      <root>
        <mxCell id="0" />
        <mxCell id="1" parent="0" />
        <mxCell id="TCsmTFpU4mynAHZ96cxk-14" value="Customer" style="swimlane;childLayout=stackLayout;horizontal=1;startSize=30;horizontalStack=0;rounded=1;fontSize=14;fontStyle=0;strokeWidth=2;resizeParent=0;resizeLast=1;shadow=0;dashed=0;align=center;sketch=0;fillColor=#F694C1;" parent="1" vertex="1">
          <mxGeometry x="80" y="60" width="160" height="120" as="geometry" />
        </mxCell>
        <mxCell id="TCsmTFpU4mynAHZ96cxk-15" value="type (string)&#xa;firstName (string)&#xa;lastName (string)&#xa;email (string)&#xa;billingAddress (string)&#xa;" style="align=left;strokeColor=none;fillColor=none;spacingLeft=4;fontSize=12;verticalAlign=top;resizable=0;rotatable=0;part=1;" parent="TCsmTFpU4mynAHZ96cxk-14" vertex="1">
          <mxGeometry y="30" width="160" height="90" as="geometry" />
        </mxCell>
        <mxCell id="TCsmTFpU4mynAHZ96cxk-18" value="Equipment" style="swimlane;childLayout=stackLayout;horizontal=1;startSize=30;horizontalStack=0;rounded=1;fontSize=14;fontStyle=0;strokeWidth=2;resizeParent=0;resizeLast=1;shadow=0;dashed=0;align=center;sketch=0;fillColor=#F694C1;" parent="1" vertex="1">
          <mxGeometry x="548" y="71" width="160" height="120" as="geometry" />
        </mxCell>
        <mxCell id="TCsmTFpU4mynAHZ96cxk-19" value="EquipmentTypeID&#xa;ModelNumber&#xa;InstallDate(DateTime)&#xa;Location (string)" style="align=left;strokeColor=none;fillColor=none;spacingLeft=4;fontSize=12;verticalAlign=top;resizable=0;rotatable=0;part=1;" parent="TCsmTFpU4mynAHZ96cxk-18" vertex="1">
          <mxGeometry y="30" width="160" height="90" as="geometry" />
        </mxCell>
        <mxCell id="TCsmTFpU4mynAHZ96cxk-23" value="" style="edgeStyle=entityRelationEdgeStyle;fontSize=12;html=1;endArrow=ERoneToMany;fillColor=#F694C1;strokeColor=#336600;exitX=1;exitY=0.25;exitDx=0;exitDy=0;" parent="1" source="TCsmTFpU4mynAHZ96cxk-15" target="TCsmTFpU4mynAHZ96cxk-27" edge="1">
          <mxGeometry width="100" height="100" relative="1" as="geometry">
            <mxPoint x="260" y="90" as="sourcePoint" />
            <mxPoint x="260" y="160" as="targetPoint" />
          </mxGeometry>
        </mxCell>
        <mxCell id="TCsmTFpU4mynAHZ96cxk-62" value="owns" style="edgeLabel;html=1;align=center;verticalAlign=middle;resizable=0;points=[];fontColor=#095C86;" parent="TCsmTFpU4mynAHZ96cxk-23" vertex="1" connectable="0">
          <mxGeometry x="0.0985" y="1" relative="1" as="geometry">
            <mxPoint as="offset" />
          </mxGeometry>
        </mxCell>
        <mxCell id="TCsmTFpU4mynAHZ96cxk-24" value="AlertMethods" style="swimlane;childLayout=stackLayout;horizontal=1;startSize=30;horizontalStack=0;rounded=1;fontSize=14;fontStyle=0;strokeWidth=2;resizeParent=0;resizeLast=1;shadow=0;dashed=0;align=center;sketch=0;fillColor=#F694C1;" parent="1" vertex="1">
          <mxGeometry x="300" y="-90" width="160" height="120" as="geometry" />
        </mxCell>
        <mxCell id="TCsmTFpU4mynAHZ96cxk-25" value="text (string)&#xa;email (string)&#xa;phone (string)" style="align=left;strokeColor=none;fillColor=none;spacingLeft=4;fontSize=12;verticalAlign=top;resizable=0;rotatable=0;part=1;" parent="TCsmTFpU4mynAHZ96cxk-24" vertex="1">
          <mxGeometry y="30" width="160" height="90" as="geometry" />
        </mxCell>
        <mxCell id="TCsmTFpU4mynAHZ96cxk-27" value="Property" style="swimlane;childLayout=stackLayout;horizontal=1;startSize=30;horizontalStack=0;rounded=1;fontSize=14;fontStyle=0;strokeWidth=2;resizeParent=0;resizeLast=1;shadow=0;dashed=0;align=center;sketch=0;fillColor=#F694C1;" parent="1" vertex="1">
          <mxGeometry x="300" y="50" width="160" height="120" as="geometry" />
        </mxCell>
        <mxCell id="TCsmTFpU4mynAHZ96cxk-28" value="type (string)&#xa;address (string)" style="align=left;strokeColor=none;fillColor=none;spacingLeft=4;fontSize=12;verticalAlign=top;resizable=0;rotatable=0;part=1;" parent="TCsmTFpU4mynAHZ96cxk-27" vertex="1">
          <mxGeometry y="30" width="160" height="90" as="geometry" />
        </mxCell>
        <mxCell id="TCsmTFpU4mynAHZ96cxk-34" value="" style="edgeStyle=entityRelationEdgeStyle;fontSize=12;html=1;endArrow=ERoneToMany;strokeColor=#336600;fillColor=#F694C1;entryX=0;entryY=0;entryDx=0;entryDy=0;" parent="1" source="TCsmTFpU4mynAHZ96cxk-28" target="TCsmTFpU4mynAHZ96cxk-19" edge="1">
          <mxGeometry width="100" height="100" relative="1" as="geometry">
            <mxPoint x="360" y="320" as="sourcePoint" />
            <mxPoint x="460" y="220" as="targetPoint" />
          </mxGeometry>
        </mxCell>
        <mxCell id="TCsmTFpU4mynAHZ96cxk-63" value="uses" style="edgeLabel;html=1;align=center;verticalAlign=middle;resizable=0;points=[];fontColor=#095C86;" parent="TCsmTFpU4mynAHZ96cxk-34" vertex="1" connectable="0">
          <mxGeometry x="-0.1" y="-3" relative="1" as="geometry">
            <mxPoint as="offset" />
          </mxGeometry>
        </mxCell>
        <mxCell id="TCsmTFpU4mynAHZ96cxk-35" value="Subscription" style="swimlane;childLayout=stackLayout;horizontal=1;startSize=30;horizontalStack=0;rounded=1;fontSize=14;fontStyle=0;strokeWidth=2;resizeParent=0;resizeLast=1;shadow=0;dashed=0;align=center;sketch=0;fillColor=#F694C1;" parent="1" vertex="1">
          <mxGeometry x="70" y="250" width="160" height="120" as="geometry" />
        </mxCell>
        <mxCell id="TCsmTFpU4mynAHZ96cxk-36" value="type (string)&#xa;price (float)" style="align=left;strokeColor=none;fillColor=none;spacingLeft=4;fontSize=12;verticalAlign=top;resizable=0;rotatable=0;part=1;" parent="TCsmTFpU4mynAHZ96cxk-35" vertex="1">
          <mxGeometry y="30" width="160" height="90" as="geometry" />
        </mxCell>
        <mxCell id="TCsmTFpU4mynAHZ96cxk-37" value="" style="edgeStyle=entityRelationEdgeStyle;fontSize=12;html=1;endArrow=ERmandOne;startArrow=ERmandOne;strokeColor=#336600;fillColor=#F694C1;entryX=0.444;entryY=1.022;entryDx=0;entryDy=0;entryPerimeter=0;exitX=0.5;exitY=0;exitDx=0;exitDy=0;" parent="1" source="TCsmTFpU4mynAHZ96cxk-35" target="TCsmTFpU4mynAHZ96cxk-15" edge="1">
          <mxGeometry width="100" height="100" relative="1" as="geometry">
            <mxPoint x="360" y="320" as="sourcePoint" />
            <mxPoint x="460" y="220" as="targetPoint" />
          </mxGeometry>
        </mxCell>
        <mxCell id="TCsmTFpU4mynAHZ96cxk-65" value="subscibes" style="edgeLabel;html=1;align=center;verticalAlign=middle;resizable=0;points=[];fontColor=#095C86;" parent="TCsmTFpU4mynAHZ96cxk-37" vertex="1" connectable="0">
          <mxGeometry x="-0.069" y="1" relative="1" as="geometry">
            <mxPoint as="offset" />
          </mxGeometry>
        </mxCell>
        <mxCell id="TCsmTFpU4mynAHZ96cxk-43" value="ServiceSchedule" style="swimlane;childLayout=stackLayout;horizontal=1;startSize=30;horizontalStack=0;rounded=1;fontSize=14;fontStyle=0;strokeWidth=2;resizeParent=0;resizeLast=1;shadow=0;dashed=0;align=center;sketch=0;fillColor=#F694C1;" parent="1" vertex="1">
          <mxGeometry x="550" y="280" width="160" height="120" as="geometry" />
        </mxCell>
        <mxCell id="TCsmTFpU4mynAHZ96cxk-44" value="type (string)&#xa;frequency (dateTime)&#xa;&#xa;" style="align=left;strokeColor=none;fillColor=none;spacingLeft=4;fontSize=12;verticalAlign=top;resizable=0;rotatable=0;part=1;" parent="TCsmTFpU4mynAHZ96cxk-43" vertex="1">
          <mxGeometry y="30" width="160" height="90" as="geometry" />
        </mxCell>
        <mxCell id="TCsmTFpU4mynAHZ96cxk-56" value="" style="edgeStyle=entityRelationEdgeStyle;fontSize=12;html=1;endArrow=ERoneToMany;strokeColor=#336600;fillColor=#F694C1;entryX=0;entryY=0.25;entryDx=0;entryDy=0;exitX=0.5;exitY=0;exitDx=0;exitDy=0;" parent="1" source="TCsmTFpU4mynAHZ96cxk-14" target="TCsmTFpU4mynAHZ96cxk-25" edge="1">
          <mxGeometry width="100" height="100" relative="1" as="geometry">
            <mxPoint x="520" y="110" as="sourcePoint" />
            <mxPoint x="420" y="230" as="targetPoint" />
          </mxGeometry>
        </mxCell>
        <mxCell id="TCsmTFpU4mynAHZ96cxk-61" value="recieves/&lt;br&gt;sends" style="edgeLabel;html=1;align=center;verticalAlign=middle;resizable=0;points=[];fontColor=#095C86;" parent="TCsmTFpU4mynAHZ96cxk-56" vertex="1" connectable="0">
          <mxGeometry x="0.0168" y="3" relative="1" as="geometry">
            <mxPoint as="offset" />
          </mxGeometry>
        </mxCell>
        <mxCell id="TCsmTFpU4mynAHZ96cxk-60" value="" style="edgeStyle=entityRelationEdgeStyle;fontSize=12;html=1;endArrow=ERmandOne;startArrow=ERmandOne;strokeColor=#336600;fillColor=#F694C1;exitX=0.4;exitY=1.022;exitDx=0;exitDy=0;exitPerimeter=0;entryX=0.5;entryY=0;entryDx=0;entryDy=0;" parent="1" source="TCsmTFpU4mynAHZ96cxk-19" target="TCsmTFpU4mynAHZ96cxk-43" edge="1">
          <mxGeometry width="100" height="100" relative="1" as="geometry">
            <mxPoint x="390" y="330" as="sourcePoint" />
            <mxPoint x="490" y="230" as="targetPoint" />
          </mxGeometry>
        </mxCell>
        <mxCell id="TCsmTFpU4mynAHZ96cxk-64" value="has" style="edgeLabel;html=1;align=center;verticalAlign=middle;resizable=0;points=[];fontColor=#095C86;" parent="TCsmTFpU4mynAHZ96cxk-60" vertex="1" connectable="0">
          <mxGeometry x="-0.0919" y="2" relative="1" as="geometry">
            <mxPoint as="offset" />
          </mxGeometry>
        </mxCell>
        <mxCell id="TCsmTFpU4mynAHZ96cxk-71" value="Manufacturer" style="swimlane;childLayout=stackLayout;horizontal=1;startSize=30;horizontalStack=0;rounded=1;fontSize=14;fontStyle=0;strokeWidth=2;resizeParent=0;resizeLast=1;shadow=0;dashed=0;align=center;sketch=0;fillColor=#F694C1;" parent="1" vertex="1">
          <mxGeometry x="790" y="250" width="160" height="120" as="geometry" />
        </mxCell>
        <mxCell id="TCsmTFpU4mynAHZ96cxk-72" value="name (string)" style="align=left;strokeColor=none;fillColor=none;spacingLeft=4;fontSize=12;verticalAlign=top;resizable=0;rotatable=0;part=1;" parent="TCsmTFpU4mynAHZ96cxk-71" vertex="1">
          <mxGeometry y="30" width="160" height="90" as="geometry" />
        </mxCell>
        <mxCell id="TCsmTFpU4mynAHZ96cxk-73" value="" style="edgeStyle=entityRelationEdgeStyle;fontSize=12;html=1;endArrow=ERoneToMany;strokeColor=#336600;fillColor=#F694C1;entryX=0;entryY=0.5;entryDx=0;entryDy=0;exitX=1;exitY=0.25;exitDx=0;exitDy=0;" parent="1" source="TCsmTFpU4mynAHZ96cxk-19" target="TCsmTFpU4mynAHZ96cxk-72" edge="1">
          <mxGeometry width="100" height="100" relative="1" as="geometry">
            <mxPoint x="470" y="200" as="sourcePoint" />
            <mxPoint x="570" y="100" as="targetPoint" />
          </mxGeometry>
        </mxCell>
        <mxCell id="TCsmTFpU4mynAHZ96cxk-74" value="makes" style="edgeLabel;html=1;align=center;verticalAlign=middle;resizable=0;points=[];fontColor=#095C86;" parent="TCsmTFpU4mynAHZ96cxk-73" vertex="1" connectable="0">
          <mxGeometry x="-0.1564" y="2" relative="1" as="geometry">
            <mxPoint as="offset" />
          </mxGeometry>
        </mxCell>
        <mxCell id="9YZ6QJbNimEEnj3mM8Ju-4" value="Sensors" style="swimlane;childLayout=stackLayout;horizontal=1;startSize=30;horizontalStack=0;rounded=1;fontSize=14;fontStyle=0;strokeWidth=2;resizeParent=0;resizeLast=1;shadow=0;dashed=0;align=center;fillColor=#F694C1;" vertex="1" parent="1">
          <mxGeometry x="660" y="-130" width="160" height="120" as="geometry" />
        </mxCell>
        <mxCell id="9YZ6QJbNimEEnj3mM8Ju-5" value="Type (string)&#xa;NetworkID (string)&#xa;" style="align=left;strokeColor=none;fillColor=none;spacingLeft=4;fontSize=12;verticalAlign=top;resizable=0;rotatable=0;part=1;" vertex="1" parent="9YZ6QJbNimEEnj3mM8Ju-4">
          <mxGeometry y="30" width="160" height="90" as="geometry" />
        </mxCell>
        <mxCell id="9YZ6QJbNimEEnj3mM8Ju-6" value="" style="edgeStyle=entityRelationEdgeStyle;fontSize=12;html=1;endArrow=ERoneToMany;exitX=0.5;exitY=0;exitDx=0;exitDy=0;" edge="1" parent="1" source="TCsmTFpU4mynAHZ96cxk-71" target="9YZ6QJbNimEEnj3mM8Ju-5">
          <mxGeometry width="100" height="100" relative="1" as="geometry">
            <mxPoint x="580" y="260" as="sourcePoint" />
            <mxPoint x="650" y="40" as="targetPoint" />
          </mxGeometry>
        </mxCell>
        <mxCell id="9YZ6QJbNimEEnj3mM8Ju-7" value="makes" style="edgeLabel;html=1;align=center;verticalAlign=middle;resizable=0;points=[];" vertex="1" connectable="0" parent="9YZ6QJbNimEEnj3mM8Ju-6">
          <mxGeometry x="-0.1366" y="1" relative="1" as="geometry">
            <mxPoint as="offset" />
          </mxGeometry>
        </mxCell>
        <mxCell id="9YZ6QJbNimEEnj3mM8Ju-12" value="" style="edgeStyle=entityRelationEdgeStyle;fontSize=12;html=1;endArrow=ERmany;startArrow=ERone;exitX=1;exitY=0;exitDx=0;exitDy=0;startFill=0;" edge="1" parent="1" source="TCsmTFpU4mynAHZ96cxk-19">
          <mxGeometry width="100" height="100" relative="1" as="geometry">
            <mxPoint x="460" y="110" as="sourcePoint" />
            <mxPoint x="740" y="-10" as="targetPoint" />
          </mxGeometry>
        </mxCell>
        <mxCell id="9YZ6QJbNimEEnj3mM8Ju-14" value="detects" style="edgeLabel;html=1;align=center;verticalAlign=middle;resizable=0;points=[];" vertex="1" connectable="0" parent="9YZ6QJbNimEEnj3mM8Ju-12">
          <mxGeometry x="0.2" y="-2" relative="1" as="geometry">
            <mxPoint as="offset" />
          </mxGeometry>
        </mxCell>
        <mxCell id="9YZ6QJbNimEEnj3mM8Ju-13" value="" style="edgeStyle=entityRelationEdgeStyle;fontSize=12;html=1;endArrow=ERoneToMany;entryX=1.013;entryY=0.333;entryDx=0;entryDy=0;entryPerimeter=0;exitX=0;exitY=0.25;exitDx=0;exitDy=0;" edge="1" parent="1" source="9YZ6QJbNimEEnj3mM8Ju-5" target="TCsmTFpU4mynAHZ96cxk-25">
          <mxGeometry width="100" height="100" relative="1" as="geometry">
            <mxPoint x="450" y="80" as="sourcePoint" />
            <mxPoint x="550" y="-20" as="targetPoint" />
          </mxGeometry>
        </mxCell>
        <mxCell id="9YZ6QJbNimEEnj3mM8Ju-16" value="send/&lt;br&gt;receives" style="edgeLabel;html=1;align=center;verticalAlign=middle;resizable=0;points=[];" vertex="1" connectable="0" parent="9YZ6QJbNimEEnj3mM8Ju-13">
          <mxGeometry x="-0.0219" y="-1" relative="1" as="geometry">
            <mxPoint as="offset" />
          </mxGeometry>
        </mxCell>
        <mxCell id="9YZ6QJbNimEEnj3mM8Ju-18" value="EquipmentTypes" style="swimlane;childLayout=stackLayout;horizontal=1;startSize=30;horizontalStack=0;rounded=1;fontSize=14;fontStyle=0;strokeWidth=2;resizeParent=0;resizeLast=1;shadow=0;dashed=0;align=center;fillColor=#F694C1;" vertex="1" parent="1">
          <mxGeometry x="300" y="251" width="160" height="120" as="geometry" />
        </mxCell>
        <mxCell id="9YZ6QJbNimEEnj3mM8Ju-19" value="Name (string)&#xa;EnergySource (string)&#xa;" style="align=left;strokeColor=none;fillColor=none;spacingLeft=4;fontSize=12;verticalAlign=top;resizable=0;rotatable=0;part=1;" vertex="1" parent="9YZ6QJbNimEEnj3mM8Ju-18">
          <mxGeometry y="30" width="160" height="90" as="geometry" />
        </mxCell>
        <mxCell id="9YZ6QJbNimEEnj3mM8Ju-20" value="" style="edgeStyle=entityRelationEdgeStyle;fontSize=12;html=1;endArrow=ERmandOne;startArrow=ERmandOne;entryX=-0.006;entryY=0.429;entryDx=0;entryDy=0;entryPerimeter=0;exitX=1;exitY=0.25;exitDx=0;exitDy=0;" edge="1" parent="1" source="9YZ6QJbNimEEnj3mM8Ju-19" target="TCsmTFpU4mynAHZ96cxk-19">
          <mxGeometry width="100" height="100" relative="1" as="geometry">
            <mxPoint x="400" y="280" as="sourcePoint" />
            <mxPoint x="500" y="180" as="targetPoint" />
          </mxGeometry>
        </mxCell>
      </root>
    </mxGraphModel>
  </diagram>
</mxfile>
